# xmcd
#
# Track frame offsets: 
#        150
#        14813
#        29345
#        42221
#        52854
#        64934
#        79101
#        90571
#        103719
#        114050
#        126343
#        138439
#        152176
#        162968
#        175650
#        189482
#        203980
#        214697
#        257476
#        267377
#        280007
#        294324
#        307928
#        321051
#        334038
#
# Disc length: 4600 seconds
#
# Revision: 0
# Processed by: cddbd v1.5.2PL0 Copyright (c) Steve Scherf et al.
# Submitted via: ExactAudioCopy v1.3
#
DISCID=5d11f619
DTITLE=Various Artist - Greatest hits - Blues [CD4)
DYEAR=2009
DGENRE=Blues
TTITLE0=Floyd Dixon - Telephone Blues
TTITLE1=Johnny "Guitar" Watson - Half Pint Of Whiskey
TTITLE2=Bo Diddley - Hush Your Mouth
TTITLE3=B.B. King - Don't You Want A Man Like Me
TTITLE4=Bobby "Blue" Bland - Don't Want No Woman
TTITLE5=Muddy Waters - Smokestack Lightin'
TTITLE6=Big Joe Turner - Story To Tell
TTITLE7=Ray Charles - Ray's Blues
TTITLE8=Bo Diddley - Willie And Lillie
TTITLE9=T-Bone Walker - Alimony Blues
TTITLE10=Bobby "Blue" Bland - Army Blues
TTITLE11=John Lee Hooker - Time Is Marching
TTITLE12=Johnny "Guitar" Watson - Highway 60
TTITLE13=Little Esther - Double Crossing Blues
TTITLE14=Muddy Waters - I'm Ready
TTITLE15=Ray Charles - Losing Hand
TTITLE16=T-Bone Walker - Travelin' Blues
TTITLE17=Big Joe Turner - The Things I Used To Do
TTITLE18=Shirley Gunter And "The Queens - Oop Shoop
TTITLE19=Floyd Dixon - Sad Journey
TTITLE20=King Cole Trio - Easy Listening Blues
TTITLE21=Julia Lee and Her Boy Friends - Draggin' My Heart Around
TTITLE22=Jay Mcshann's Kansas City Stompers - Trouble In Mind
TTITLE23=Sunnyland Slim - Johnson Machine Gun
TTITLE24=Amos Milburn - Blues At Sundown
EXTD=
EXTT0=
EXTT1=
EXTT2=
EXTT3=
EXTT4=
EXTT5=
EXTT6=
EXTT7=
EXTT8=
EXTT9=
EXTT10=
EXTT11=
EXTT12=
EXTT13=
EXTT14=
EXTT15=
EXTT16=
EXTT17=
EXTT18=
EXTT19=
EXTT20=
EXTT21=
EXTT22=
EXTT23=
EXTT24=
PLAYORDER=
